<?xml version="1.0" encoding="UTF-8"?>
<svg xmlns="http://www.w3.org/2000/svg" xmlns:xlink="http://www.w3.org/1999/xlink" width="292px" height="292px" viewBox="0 0 292 292" version="1.1">
<g id="surface1">
<path style=" stroke:none;fill-rule:nonzero;fill:rgb(0%,34.901961%,61.176471%);fill-opacity:1;" d="M 288.285156 219.222656 C 290.578125 215.691406 292 211.714844 292 208.140625 L 292 84.152344 C 292 80.582031 290.578125 76.605469 288.285156 73.074219 L 146 146.148438 Z M 288.285156 219.222656 "/>
<path style=" stroke:none;fill-rule:nonzero;fill:rgb(0%,26.666667%,50.980392%);fill-opacity:1;" d="M 158.644531 289.617188 L 279.355469 227.625 C 282.832031 225.835938 285.992188 222.753906 288.285156 219.222656 L 146 146.148438 L 3.714844 219.222656 C 6.007812 222.753906 9.167969 225.839844 12.644531 227.625 L 133.355469 289.617188 C 140.308594 293.1875 151.691406 293.1875 158.644531 289.617188 Z M 158.644531 289.617188 "/>
<path style=" stroke:none;fill-rule:nonzero;fill:rgb(39.607843%,60.392157%,82.352941%);fill-opacity:1;" d="M 288.285156 73.074219 C 285.992188 69.542969 282.832031 66.457031 279.355469 64.671875 L 158.644531 2.679688 C 151.691406 -0.894531 140.308594 -0.894531 133.355469 2.679688 L 12.644531 64.671875 C 5.6875 68.242188 0 77.011719 0 84.152344 L 0 208.140625 C 0 211.714844 1.421875 215.691406 3.714844 219.222656 Z M 288.285156 73.074219 "/>
<path style=" stroke:none;fill-rule:nonzero;fill:rgb(100%,100%,100%);fill-opacity:1;" d="M 146 232.730469 C 92.332031 232.730469 48.667969 193.890625 48.667969 146.148438 C 48.667969 98.40625 92.332031 59.566406 146 59.566406 C 180.632812 59.566406 212.929688 76.144531 230.289062 102.832031 L 188.167969 124.511719 C 179.476562 111.15625 163.320312 102.859375 146 102.859375 C 119.164062 102.859375 97.332031 122.277344 97.332031 146.148438 C 97.332031 170.019531 119.164062 189.4375 146 189.4375 C 163.320312 189.4375 179.480469 181.140625 188.167969 167.78125 L 230.292969 189.464844 C 212.933594 216.152344 180.632812 232.730469 146 232.730469 Z M 146 232.730469 "/>
<path style=" stroke:none;fill-rule:nonzero;fill:rgb(100%,100%,100%);fill-opacity:1;" d="M 243.332031 141.339844 L 232.519531 141.339844 L 232.519531 131.71875 L 221.703125 131.71875 L 221.703125 141.339844 L 210.890625 141.339844 L 210.890625 150.957031 L 221.703125 150.957031 L 221.703125 160.578125 L 232.519531 160.578125 L 232.519531 150.957031 L 243.332031 150.957031 Z M 243.332031 141.339844 "/>
<path style=" stroke:none;fill-rule:nonzero;fill:rgb(100%,100%,100%);fill-opacity:1;" d="M 283.890625 141.339844 L 273.074219 141.339844 L 273.074219 131.71875 L 262.261719 131.71875 L 262.261719 141.339844 L 251.445312 141.339844 L 251.445312 150.957031 L 262.261719 150.957031 L 262.261719 160.578125 L 273.074219 160.578125 L 273.074219 150.957031 L 283.890625 150.957031 Z M 283.890625 141.339844 "/>
</g>
</svg>
